# xmcd
#
# Track frame offsets: 
#        150
#        19502
#        38735
#        56450
#        73725
#        95342
#        120207
#        138757
#        165690
#        186267
#        210780
#        237770
#
# Disc length: 3378 seconds
#
# Revision: 0
# Processed by: cddbd v1.5.2PL0 Copyright (c) Steve Scherf et al.
# Submitted via: ExactAudioCopy v0.95b3
#
DISCID=8e0d300c
DTITLE=Alice In Chains  - The Essential Disc 02
DYEAR=1900
DGENRE=
TTITLE0=No Excuses
TTITLE1=I Stay Away
TTITLE2=What The Hell Have I (Remix)
TTITLE3=A Little Bitter (Remix)
TTITLE4=Grind
TTITLE5=Heaven Beside You
TTITLE6=Again
TTITLE7=Over Now (Unplugged Version)
TTITLE8=Nutshell (Unplugged Version)
TTITLE9=Get Born Again
TTITLE10=Died
TTITLE11=Would
EXTD=
EXTT0=
EXTT1=
EXTT2=
EXTT3=
EXTT4=
EXTT5=
EXTT6=
EXTT7=
EXTT8=
EXTT9=
EXTT10=
EXTT11=
PLAYORDER=
